<mxfile host="app.diagrams.net" modified="2024-01-04T19:31:07.091Z" agent="Mozilla/5.0 (Windows NT 10.0; Win64; x64; rv:121.0) Gecko/20100101 Firefox/121.0" version="22.1.16" etag="w3q0ETDTNuUW-CUhTkk6" type="github">
  <diagram name="Halaman-1" id="wab72Byin-5usfTSYQA8">
    <mxGraphModel>
      <root>
        <mxCell id="0" />
        <mxCell id="1" parent="0" />
      </root>
    </mxGraphModel>
  </diagram>
</mxfile>
